<svg viewBox="0,0,510,500" width="760" height="500" transform="translate(0, 10)" xmlns="http://www.w3.org/2000/svg" xmlns:xlink="http://www.w3.org/1999/xlink"><g transform="translate(0, 460)" fill="none" font-size="10" font-family="sans-serif" text-anchor="middle"><path class="domain" stroke="currentColor" d="M0.5,6V0.5H510.5V6"/><g class="tick" opacity="1" transform="translate(52.073033707865164,0)"><line stroke="currentColor" y2="6"/><text fill="currentColor" y="9" dy="0.71em">1e+09</text></g><g class="tick" opacity="1" transform="translate(109.37640449438202,0)"><line stroke="currentColor" y2="6"/><text fill="currentColor" y="9" dy="0.71em">2e+09</text></g><g class="tick" opacity="1" transform="translate(166.6797752808989,0)"><line stroke="currentColor" y2="6"/><text fill="currentColor" y="9" dy="0.71em">3e+09</text></g><g class="tick" opacity="1" transform="translate(223.98314606741573,0)"><line stroke="currentColor" y2="6"/><text fill="currentColor" y="9" dy="0.71em">4e+09</text></g><g class="tick" opacity="1" transform="translate(281.2865168539326,0)"><line stroke="currentColor" y2="6"/><text fill="currentColor" y="9" dy="0.71em">5e+09</text></g><g class="tick" opacity="1" transform="translate(338.58988764044943,0)"><line stroke="currentColor" y2="6"/><text fill="currentColor" y="9" dy="0.71em">6e+09</text></g><g class="tick" opacity="1" transform="translate(395.89325842696627,0)"><line stroke="currentColor" y2="6"/><text fill="currentColor" y="9" dy="0.71em">7e+09</text></g><g class="tick" opacity="1" transform="translate(453.1966292134831,0)"><line stroke="currentColor" y2="6"/><text fill="currentColor" y="9" dy="0.71em">8e+09</text></g><g class="tick" opacity="1" transform="translate(510.5,0)"><line stroke="currentColor" y2="6"/><text fill="currentColor" y="9" dy="0.71em">9e+09</text></g></g><g fill="none" font-size="10" font-family="sans-serif" text-anchor="end"><path class="domain" stroke="currentColor" d="M-6,0.5H0.5V460.5H-6"/><g class="tick" opacity="1" transform="translate(0,26.055555555555543)"><line stroke="currentColor" x2="-6"/><text fill="currentColor" x="-9" dy="0.32em">Arcade</text></g><g class="tick" opacity="1" transform="translate(0,51.6111111111111)"><line stroke="currentColor" x2="-6"/><text fill="currentColor" x="-9" dy="0.32em">Auto &amp; Vehicles</text></g><g class="tick" opacity="1" transform="translate(0,77.16666666666666)"><line stroke="currentColor" x2="-6"/><text fill="currentColor" x="-9" dy="0.32em">Books &amp; Reference</text></g><g class="tick" opacity="1" transform="translate(0,102.72222222222221)"><line stroke="currentColor" x2="-6"/><text fill="currentColor" x="-9" dy="0.32em">Business</text></g><g class="tick" opacity="1" transform="translate(0,128.27777777777777)"><line stroke="currentColor" x2="-6"/><text fill="currentColor" x="-9" dy="0.32em">Casual</text></g><g class="tick" opacity="1" transform="translate(0,153.83333333333331)"><line stroke="currentColor" x2="-6"/><text fill="currentColor" x="-9" dy="0.32em">Communication</text></g><g class="tick" opacity="1" transform="translate(0,179.38888888888889)"><line stroke="currentColor" x2="-6"/><text fill="currentColor" x="-9" dy="0.32em">Entertainment</text></g><g class="tick" opacity="1" transform="translate(0,204.94444444444446)"><line stroke="currentColor" x2="-6"/><text fill="currentColor" x="-9" dy="0.32em">Health &amp; Fitness</text></g><g class="tick" opacity="1" transform="translate(0,230.5)"><line stroke="currentColor" x2="-6"/><text fill="currentColor" x="-9" dy="0.32em">Music &amp; Audio</text></g><g class="tick" opacity="1" transform="translate(0,256.05555555555554)"><line stroke="currentColor" x2="-6"/><text fill="currentColor" x="-9" dy="0.32em">News &amp; Magazines</text></g><g class="tick" opacity="1" transform="translate(0,281.6111111111111)"><line stroke="currentColor" x2="-6"/><text fill="currentColor" x="-9" dy="0.32em">Personalization</text></g><g class="tick" opacity="1" transform="translate(0,307.1666666666667)"><line stroke="currentColor" x2="-6"/><text fill="currentColor" x="-9" dy="0.32em">Photography</text></g><g class="tick" opacity="1" transform="translate(0,332.72222222222223)"><line stroke="currentColor" x2="-6"/><text fill="currentColor" x="-9" dy="0.32em">Productivity</text></g><g class="tick" opacity="1" transform="translate(0,358.27777777777777)"><line stroke="currentColor" x2="-6"/><text fill="currentColor" x="-9" dy="0.32em">Social</text></g><g class="tick" opacity="1" transform="translate(0,383.83333333333337)"><line stroke="currentColor" x2="-6"/><text fill="currentColor" x="-9" dy="0.32em">Tools</text></g><g class="tick" opacity="1" transform="translate(0,409.3888888888889)"><line stroke="currentColor" x2="-6"/><text fill="currentColor" x="-9" dy="0.32em">Travel &amp; Local</text></g><g class="tick" opacity="1" transform="translate(0,434.94444444444446)"><line stroke="currentColor" x2="-6"/><text fill="currentColor" x="-9" dy="0.32em">Video Players &amp; Editors</text></g></g><line x1="51.573033707865164" x2="91.94302886966292" y1="25.555555555555543" y2="25.555555555555543" stroke="grey" stroke-width="1px"/><line x1="51.573033707865164" x2="107.53698089325843" y1="51.1111111111111" y2="51.1111111111111" stroke="grey" stroke-width="1px"/><line x1="51.573033707865164" x2="177.79383514719103" y1="76.66666666666666" y2="76.66666666666666" stroke="grey" stroke-width="1px"/><line x1="51.573033707865164" x2="75.11424862921349" y1="102.22222222222221" y2="102.22222222222221" stroke="grey" stroke-width="1px"/><line x1="51.573033707865164" x2="63.5163560494382" y1="127.77777777777777" y2="127.77777777777777" stroke="grey" stroke-width="1px"/><line x1="147.07865168539325" x2="239.65835791264047" y1="153.33333333333331" y2="153.33333333333331" stroke="grey" stroke-width="1px"/><line x1="51.573033707865164" x2="167.40587255561798" y1="178.88888888888889" y2="178.88888888888889" stroke="grey" stroke-width="1px"/><line x1="51.573033707865164" x2="71.14929133483146" y1="204.44444444444446" y2="204.44444444444446" stroke="grey" stroke-width="1px"/><line x1="51.573033707865164" x2="54.75267972696629" y1="230" y2="230" stroke="grey" stroke-width="1px"/><line x1="51.573033707865164" x2="119.25582458595505" y1="255.55555555555554" y2="255.55555555555554" stroke="grey" stroke-width="1px"/><line x1="51.573033707865164" x2="117.98534241235954" y1="281.1111111111111" y2="281.1111111111111" stroke="grey" stroke-width="1px"/><line x1="166.1797752808989" x2="219.96715266067417" y1="306.6666666666667" y2="306.6666666666667" stroke="grey" stroke-width="1px"/><line x1="69.2048401037165" x2="104.41247334269663" y1="332.22222222222223" y2="332.22222222222223" stroke="grey" stroke-width="1px"/><line x1="84.31781701444622" x2="164.17941759727125" y1="357.77777777777777" y2="357.77777777777777" stroke="grey" stroke-width="1px"/><line x1="118.42696629213482" x2="197.12075390468164" y1="383.33333333333337" y2="383.33333333333337" stroke="grey" stroke-width="1px"/><line x1="166.1797752808989" x2="305.4697187039326" y1="408.8888888888889" y2="408.8888888888889" stroke="grey" stroke-width="1px"/><line x1="280.7865168539326" x2="450.48328190393255" y1="434.44444444444446" y2="434.44444444444446" stroke="grey" stroke-width="1px"/><circle cx="51.573033707865164" cy="25.555555555555543" r="6" style="fill: rgb(105, 179, 162);"/><circle cx="51.573033707865164" cy="51.1111111111111" r="6" style="fill: rgb(105, 179, 162);"/><circle cx="51.573033707865164" cy="76.66666666666666" r="6" style="fill: rgb(105, 179, 162);"/><circle cx="51.573033707865164" cy="102.22222222222221" r="6" style="fill: rgb(105, 179, 162);"/><circle cx="51.573033707865164" cy="127.77777777777777" r="6" style="fill: rgb(105, 179, 162);"/><circle cx="147.07865168539325" cy="153.33333333333331" r="6" style="fill: rgb(105, 179, 162);"/><circle cx="51.573033707865164" cy="178.88888888888889" r="6" style="fill: rgb(105, 179, 162);"/><circle cx="51.573033707865164" cy="204.44444444444446" r="6" style="fill: rgb(105, 179, 162);"/><circle cx="51.573033707865164" cy="230" r="6" style="fill: rgb(105, 179, 162);"/><circle cx="51.573033707865164" cy="255.55555555555554" r="6" style="fill: rgb(105, 179, 162);"/><circle cx="51.573033707865164" cy="281.1111111111111" r="6" style="fill: rgb(105, 179, 162);"/><circle cx="166.1797752808989" cy="306.6666666666667" r="6" style="fill: rgb(105, 179, 162);"/><circle cx="69.2048401037165" cy="332.22222222222223" r="6" style="fill: rgb(105, 179, 162);"/><circle cx="84.31781701444622" cy="357.77777777777777" r="6" style="fill: rgb(105, 179, 162);"/><circle cx="118.42696629213482" cy="383.33333333333337" r="6" style="fill: rgb(105, 179, 162);"/><circle cx="166.1797752808989" cy="408.8888888888889" r="6" style="fill: rgb(105, 179, 162);"/><circle cx="280.7865168539326" cy="434.44444444444446" r="6" style="fill: rgb(105, 179, 162);"/><circle cx="91.94302886966292" cy="25.555555555555543" r="6" style="fill: rgb(76, 64, 130);"/><circle cx="107.53698089325843" cy="51.1111111111111" r="6" style="fill: rgb(76, 64, 130);"/><circle cx="177.79383514719103" cy="76.66666666666666" r="6" style="fill: rgb(76, 64, 130);"/><circle cx="75.11424862921349" cy="102.22222222222221" r="6" style="fill: rgb(76, 64, 130);"/><circle cx="63.5163560494382" cy="127.77777777777777" r="6" style="fill: rgb(76, 64, 130);"/><circle cx="239.65835791264047" cy="153.33333333333331" r="6" style="fill: rgb(76, 64, 130);"/><circle cx="167.40587255561798" cy="178.88888888888889" r="6" style="fill: rgb(76, 64, 130);"/><circle cx="71.14929133483146" cy="204.44444444444446" r="6" style="fill: rgb(76, 64, 130);"/><circle cx="54.75267972696629" cy="230" r="6" style="fill: rgb(76, 64, 130);"/><circle cx="119.25582458595505" cy="255.55555555555554" r="6" style="fill: rgb(76, 64, 130);"/><circle cx="117.98534241235954" cy="281.1111111111111" r="6" style="fill: rgb(76, 64, 130);"/><circle cx="219.96715266067417" cy="306.6666666666667" r="6" style="fill: rgb(76, 64, 130);"/><circle cx="104.41247334269663" cy="332.22222222222223" r="6" style="fill: rgb(76, 64, 130);"/><circle cx="164.17941759727125" cy="357.77777777777777" r="6" style="fill: rgb(76, 64, 130);"/><circle cx="197.12075390468164" cy="383.33333333333337" r="6" style="fill: rgb(76, 64, 130);"/><circle cx="305.4697187039326" cy="408.8888888888889" r="6" style="fill: rgb(76, 64, 130);"/><circle cx="450.48328190393255" cy="434.44444444444446" r="6" style="fill: rgb(76, 64, 130);"/></svg>